<!-- icon666.com - MILLIONS vector ICONS FREE --><svg xmlns="http://www.w3.org/2000/svg" viewBox="0 0 64 64"><g id="_16-artificial" data-name="16-artificial"><path d="M39,7A15,15,0,1,0,54,22,15.017,15.017,0,0,0,39,7Zm7.738,21.324a9.971,9.971,0,0,0,0-12.648l2.123-2.123a12.935,12.935,0,0,1,0,16.894ZM41.753,17.833a4.966,4.966,0,0,0-5.506,0L34.1,15.688a7.95,7.95,0,0,1,9.8,0ZM42,22a3,3,0,1,1-3-3A3,3,0,0,1,42,22Zm-7.167-2.753a4.966,4.966,0,0,0,0,5.506L32.688,26.9a7.95,7.95,0,0,1,0-9.8Zm1.414,6.92a4.966,4.966,0,0,0,5.506,0L43.9,28.312a7.95,7.95,0,0,1-9.8,0Zm6.92-1.414a4.966,4.966,0,0,0,0-5.506L45.312,17.1a7.95,7.95,0,0,1,0,9.8Zm4.28-12.614-2.123,2.123a9.971,9.971,0,0,0-12.648,0l-2.123-2.123a12.935,12.935,0,0,1,16.894,0ZM29.139,13.553l2.123,2.123a9.971,9.971,0,0,0,0,12.648l-2.123,2.123a12.935,12.935,0,0,1,0-16.894Zm1.414,18.308,2.123-2.123a9.971,9.971,0,0,0,12.648,0l2.123,2.123a12.935,12.935,0,0,1-16.894,0Z" style="fill: rgb(105, 162, 242);" fill="#6999dc"></path><path d="M60.452,35.093a21.63,21.63,0,0,0,.659-17.066c-.067-.176-.111-.284-.113-.289A27.133,27.133,0,0,0,55.287,9.1C51.493,5.146,44.7.361,33.869.019,23.2-.332,16.809,4.13,13.319,7.922,8.527,13.13,6.85,19.519,7.313,23.541a2.986,2.986,0,0,1-.265,1.624A20.777,20.777,0,0,1,1.732,32.1C.4,33.2-.158,34.334.088,35.466c.4,1.817,2.788,2.818,4.726,3.337a.652.652,0,0,1,.5.5c.022.182-.06.364-.282.8a7.329,7.329,0,0,0-.571,1.354,1.469,1.469,0,0,0,.262,1.357,3.9,3.9,0,0,0,2.355,1.014c-.944.562-1.467,1.144-1.562,1.74a1.563,1.563,0,0,0,.78,1.581,1.73,1.73,0,0,1,.694,2.186,1.1,1.1,0,0,0-.051.135c-.687,2.364-.613,4.3.219,5.761a5.4,5.4,0,0,0,3.5,2.465,7.8,7.8,0,0,0,1.948.242,9.072,9.072,0,0,0,2.909-.495L47.57,46.588A21.874,21.874,0,0,0,60.452,35.093ZM14.87,55.545a6.535,6.535,0,0,1-3.719.21A3.418,3.418,0,0,1,8.9,54.234c-.547-.958-.565-2.354-.052-4.15a3.734,3.734,0,0,0-1.085-4.342,19.162,19.162,0,0,1,4.509-1.778A1,1,0,0,0,11.95,42a19.024,19.024,0,0,1-5.445-.343c.094-.233.2-.442.306-.646A3.213,3.213,0,0,0,7.3,39.053a2.653,2.653,0,0,0-1.966-2.182c-2.109-.565-3.184-1.346-3.29-1.831-.069-.321.291-.846.964-1.4a22.816,22.816,0,0,0,5.848-7.614A4.984,4.984,0,0,0,9.3,23.312c-.4-3.454,1.15-9.319,5.491-14.036C18,5.791,23.9,1.722,33.805,2.017c19.358.614,25.081,15.765,25.333,16.455l.1.266a19.646,19.646,0,0,1-.6,15.5A19.883,19.883,0,0,1,46.928,44.693Z" fill="#000000"></path><path d="M17,25.5a1.5,1.5,0,0,1-3,0V25H12v.5a3.5,3.5,0,0,0,7,0V25H17Z" fill="#000000"></path><path d="M63.4,62.084,48,55.346V49a1,1,0,0,0-1.327-.945l-26,9A1,1,0,0,0,20,58v5h.015a.95.95,0,0,0-.006.131A1,1,0,0,0,21,64H63a1,1,0,0,0,.4-1.916ZM32.74,58.8,22,61.7V58.712L46,50.4v4.829l-2.26.609.52,1.931,2.661-.716L51,58.841V62H28.562l4.7-1.265ZM53,62V59.716L58.219,62Z" fill="#000000"></path><path d="M38,60.949V61H49V59H41.649A3.464,3.464,0,0,0,42,57.5a3.5,3.5,0,1,0-4,3.449ZM38.5,56A1.5,1.5,0,1,1,37,57.5,1.5,1.5,0,0,1,38.5,56Z" fill="#000000"></path></g></svg>