<!-- icon666.com - MILLIONS vector ICONS FREE --><svg id="Layer_5" enable-background="new 0 0 62 62" viewBox="0 0 62 62" xmlns="http://www.w3.org/2000/svg"><g><g><g><path d="m49 58v2c0 .55-.45 1-1 1h-26c-.55 0-1-.45-1-1v-2c0-.55.45-1 1-1h3 20 3c.55 0 1 .45 1 1z" fill="#969faa"></path></g><g><path d="m13 51h44c2.209 0 4-1.791 4-4v-32c0-2.209-1.791-4-4-4h-48v36c0 2.209 1.791 4 4 4z" fill="#ccd1d9"></path></g><g><path d="m14 43h42c.552 0 1-.448 1-1v-26c0-.552-.448-1-1-1h-43v27c0 .552.448 1 1 1z" fill="#69d6f4"></path></g><g><path d="m25 51h20v6h-20z" fill="#aab2bd"></path></g><g><circle cx="40" cy="29" fill="#cf9e76" r="7"></circle></g><g><path d="m29 15v8c0 1.1-.9 2-2 2h-8v2.59c0 .78-.63 1.41-1.41 1.41-.38 0-.74-.15-1-.41l-3.59-3.59h-4-6c-1.1 0-2-.9-2-2v-20c0-1.1.9-2 2-2h24c1.1 0 2 .9 2 2v8z" fill="#ffeaa7"></path></g><g><path d="m23 11v4l-1.48.54c-.04.09-.07.19-.11.28l.66 1.42-2.83 2.83-1.42-.66c-.09.04-.19.07-.28.11l-.54 1.48h-4l-.54-1.48c-.09-.04-.19-.07-.28-.11l-1.42.66-2.83-2.83.66-1.42c-.04-.09-.07-.19-.11-.28l-1.48-.54v-4l1.48-.54c.04-.09.07-.19.11-.28l-.66-1.42 2.83-2.83 1.42.66c.09-.04.19-.07.28-.11l.54-1.48h4l.54 1.48c.09.04.19.07.28.11l1.42-.66 2.83 2.83-.66 1.42c.04.09.07.19.11.28zm-4 2c0-2.21-1.79-4-4-4s-4 1.79-4 4 1.79 4 4 4 4-1.79 4-4z" fill="#ff826e"></path></g></g><g><path d="m57 10h-27v-7c0-1.654-1.346-3-3-3h-24c-1.654 0-3 1.346-3 3v20c0 1.654 1.346 3 3 3h5v21c0 2.757 2.243 5 5 5h11v4h-2c-1.103 0-2 .897-2 2v2c0 1.103.897 2 2 2h26c1.103 0 2-.897 2-2v-2c0-1.103-.897-2-2-2h-2v-4h11c2.757 0 5-2.243 5-5v-32c0-2.757-2.243-5-5-5zm-43 17.414 1.879 1.879c.449.449 1.071.707 1.707.707 1.331 0 2.414-1.083 2.414-2.414v-1.586h7c1.551 0 2.816-1.188 2.97-2.699.411.801.92 1.623 1.47 2.421-3.609.695-5.44 1.794-5.44 3.278 0 2.014 3.372 3.013 6.822 3.51 1.304 2.654 4.027 4.49 7.178 4.49.728 0 1.431-.106 2.102-.29 2.222 1.669 4.853 3.287 6.73 3.287.622 0 1.162-.178 1.574-.591 1.047-1.047.728-2.937-.976-5.777-.261-.435-.56-.888-.875-1.348 2.918-.555 5.445-1.538 5.445-3.281 0-1.663-2.299-2.842-6.823-3.511-1.303-2.653-4.026-4.489-7.177-4.489-.728 0-1.431.106-2.102.29-.875-.656-1.725-1.239-2.527-1.72-2.507-1.504-4.271-1.926-5.371-1.284v-2.286h26v26h-42zm26 7.586c-1.869 0-3.541-.86-4.642-2.204 2.239.189 4.136.204 4.642.204s2.403-.015 4.642-.204c-1.101 1.344-2.773 2.204-4.642 2.204zm6.782-1.777c1.764 2.524 2.45 4.291 2.232 4.752-.23.113-1.66-.003-4.791-2.193 1.036-.647 1.911-1.523 2.559-2.559zm1.092-5.591c2.637.481 3.761 1.082 4.066 1.373-.389.408-1.797.946-4.066 1.361.078-.445.126-.899.126-1.366s-.049-.923-.126-1.368zm-6.156-.35c1.23 1.23 2.283 2.4 3.187 3.491-1.443.14-3.08.227-4.905.227-2.193 0-4.12-.124-5.755-.317-.157-.535-.245-1.098-.245-1.683 0-2.43 1.455-4.523 3.537-5.465 1.28 1.016 2.687 2.254 4.181 3.747zm-1.683-4.28c3.281.019 5.944 2.683 5.963 5.963-.879-1.029-1.841-2.071-2.866-3.097s-2.068-1.987-3.097-2.866zm-7.91 7.364c-2.269-.415-3.677-.953-4.066-1.361.305-.291 1.429-.892 4.066-1.373-.076.445-.125.901-.125 1.368s.048.921.125 1.366zm1.093-5.589c-2.192-3.134-2.311-4.559-2.233-4.752.483-.246 2.26.432 4.789 2.194-1.034.648-1.909 1.523-2.556 2.558zm-31.218-1.777v-20c0-.552.448-1 1-1h24c.552 0 1 .448 1 1v20c0 .552-.448 1-1 1h-9v3.586c.001.338-.469.531-.707.293l-3.879-3.879h-10.414c-.552 0-1-.448-1-1zm46.002 37h-26.002v-2h26zm-4.002-4h-18v-4h18zm16-9c0 1.654-1.346 3-3 3h-44c-1.654 0-3-1.346-3-3v-21h2v16c0 1.103.897 2 2 2h42c1.103 0 2-.897 2-2v-26c0-1.103-.897-2-2-2h-26v-2h27c1.654 0 3 1.346 3 3z"></path><path d="m18.181 20.679 1.273.596 3.82-3.82-.596-1.273 1.322-.481v-5.402l-1.321-.479.596-1.273-3.82-3.82-1.273.596-.481-1.323h-5.402l-.479 1.321-1.273-.596-3.82 3.82.596 1.273-1.323.481v5.402l1.321.479-.596 1.273 3.82 3.82 1.273-.596.481 1.323h5.402zm-1.882-.679h-2.598l-.3-.823-.202-.442-1.031-.427-1.198.561-1.838-1.839.561-1.198-.446-1.08-1.247-.453v-2.598l.823-.3.442-.202.427-1.031-.56-1.198 1.838-1.838 1.198.561 1.08-.446.453-1.247h2.598l.3.823.202.442 1.031.427 1.198-.561 1.838 1.838-.561 1.198.446 1.08 1.247.454v2.598l-.823.3-.442.202-.427 1.031.561 1.198-1.838 1.838-1.198-.561-1.08.446z"></path><path d="m20 13c0-2.757-2.243-5-5-5s-5 2.243-5 5 2.243 5 5 5 5-2.243 5-5zm-5 3c-1.654 0-3-1.346-3-3s1.346-3 3-3 3 1.346 3 3-1.346 3-3 3z"></path><circle cx="57" cy="47" r="1"></circle><circle cx="53" cy="47" r="1"></circle><circle cx="49" cy="47" r="1"></circle><path d="m16 38h10v2h-10z"></path><path d="m16 34h10v2h-10z"></path></g></g></svg>