<!-- icon666.com - MILLIONS vector ICONS FREE --><svg version="1.1" id="Capa_1" xmlns="http://www.w3.org/2000/svg" xmlns:xlink="http://www.w3.org/1999/xlink" x="0px" y="0px" viewBox="0 0 512 512" style="enable-background:new 0 0 512 512;" xml:space="preserve"><path style="fill:#F9F9F9;" d="M354.871,9.532L354.871,9.532c-7.765-3.065-3.013-1.872-213.629-1.872l0,0H75.152 c-48.253,0.033-41.64-0.391-48.661,1.208c-12.156,4.301-18.87,14.34-18.87,25.647c0,331.581-0.455,312.47,0.949,317.62 c3.131,11.492,13.613,19.782,25.906,19.782c334.063,0,312.593,0.265,316.828-0.746c11.966-2.87,20.574-13.602,20.574-26.109 c0-193.834,0-116.657,0-310.547C371.878,23.82,365.643,13.897,354.871,9.532z"></path><path style="fill:#F2F2F2;" d="M39.899,352.136c-1.405-5.156-0.948,15.955-0.948-271.709V34.515 c0-18.984,16.907-24.893,17.007-24.983l0,0c3.1-1.223,6.435-1.872,9.848-1.872C34.516,7.687,31.43,6.85,24.629,9.532l0,0 C14.151,13.74,7.622,23.618,7.622,34.515c0,331.581-0.455,312.47,0.948,317.62c2.961,10.871,12.465,18.93,24.068,19.712 c1.974,0.133,0.196,0.041,33.166,0.07C53.507,371.917,43.027,363.624,39.899,352.136z"></path><path style="fill:#FFB70D;" d="M321.133,115.678c-9.431,0-250.346,0-263.571,0c-6.599,0-11.999,5.399-11.999,11.999 c0,25.409,0,47.061,0,73.487c0,6.599,5.399,11.999,11.999,11.999c26.527,0,221.881,0,263.571,0c6.599,0,11.999-5.399,11.999-11.999 c0-26.385,0-47.997,0-73.487C333.132,121.079,327.732,115.678,321.133,115.678z"></path><path style="fill:#F4A403;" d="M75.56,201.165c0-26.385,0-47.997,0-73.487c0-6.599,5.399-11.999,11.999-11.999 c-10.32,0-19.282,0-29.997,0c-6.599,0-11.999,5.399-11.999,11.999c0,25.409,0,47.061,0,73.487c0,6.599,5.399,11.999,11.999,11.999 c6.509,0,18.771,0,29.997,0C80.959,213.164,75.56,207.764,75.56,201.165z"></path><path style="fill:#666666;" d="M371.878,34.515c0-14.831-12.024-26.855-26.855-26.855H34.476c-14.831,0-26.855,12.024-26.855,26.855 v45.734h364.257V34.515z"></path><path style="fill:#535454;" d="M55.957,9.532L55.957,9.532c3.101-1.223,6.435-1.872,9.848-1.872 c-15.711,0.134-28.689-0.291-35.42,0.31l0,0c-2.402,0.368-4.245,0.966-5.756,1.562l0,0l0,0l0,0 c-9.877,3.83-17.006,13.629-17.006,24.983v45.734h31.329V34.515C38.95,15.532,55.857,9.623,55.957,9.532z"></path><path style="fill:#70B5E8;" d="M446.667,195.111c-13.158-13.158-30.003-21.549-48.611-21.549c-17.616,0-153.086-0.374-143.443,0.499 c-6.089,1.628-10.58,7.166-10.58,13.769c0,166.258,0,92.824,0,302.479c0,7.879,6.387,14.267,14.267,14.267 c11.31,0,222.24,0,231.968,0c7.879,0,14.267-6.387,14.267-14.267c0-78.69,0-186.536,0-216.212c0-14.801-6.879-27.996-17.345-38.462 L446.667,195.111z"></path><path style="fill:#52A5D8;" d="M274.804,490.308c0-87.478,0-208.421,0-302.479c0-8.052,6.611-14.267,14.267-14.267 c-34.378,0-31.594-0.185-34.458,0.499c-6.089,1.628-10.58,7.166-10.58,13.769c0,166.259,0,92.824,0,302.479 c0,7.879,6.387,14.267,14.267,14.267c2.421,0,13.99,0,30.771,0C281.191,504.575,274.804,498.188,274.804,490.308z"></path><g><path style="fill:#A4D9F4;" d="M482.097,250.98c-35.779,0-44.541,0.187-44.4-0.499h0.001c-6.089-1.628-10.58-7.166-10.58-13.768 v-33.834c-0.009-1.829-0.698-29.316-33.718-29.316c1.717,0.385,19.42-2.197,39.516,9.295c13.818,7.912,19.872,17.428,29.33,25.832 l0,0l25.945,25.945c9.781,9.781,15.78,23.148,16.287,37.506C503.503,254.757,489.539,251.483,482.097,250.98z"></path><path style="fill:#A4D9F4;" d="M504.478,272.14c0.035,0.634,0.058,1.283,0.058,1.955C504.536,273.441,504.5,272.792,504.478,272.14 z"></path></g><g><path style="fill:#84C7EF;" d="M467.694,250.481L467.694,250.481c-6.089-1.628-10.58-7.166-10.58-13.768v-32.949 c-6.926-7.06-13.024-14.507-24.199-20.907c-17.518-10.018-33.213-9.341-38.091-9.258c31.592,0.792,32.283,27.477,32.293,29.279 v33.834c0,6.602,4.49,12.142,10.58,13.768l0,0c-0.132,0.642,7.543,0.519,37.887,0.501 C469.604,250.937,467.627,250.809,467.694,250.481z"></path><path style="fill:#84C7EF;" d="M394.824,173.599c-0.476-0.012-0.935-0.037-1.425-0.037 C393.619,173.611,394.107,173.611,394.824,173.599z"></path></g><path style="fill:#52A5D8;" d="M195.681,336.118H58.63c-7.186,0-13.067-5.88-13.067-13.067v-65.327 c0-7.186,5.88-13.067,13.067-13.067h137.051c7.186,0,13.067,5.88,13.067,13.067v65.327 C208.747,330.239,202.868,336.118,195.681,336.118z"></path><path style="fill:#3094C6;" d="M75.56,323.052v-65.327c0-7.186,5.879-13.067,13.067-13.067H58.63 c-7.186,0-13.067,5.879-13.067,13.067v65.327c0,7.186,5.879,13.067,13.067,13.067h29.997C81.44,336.118,75.56,330.238,75.56,323.052 z"></path><path d="M52.643,39.682c-0.508-0.773-1.176-1.47-2.069-2.08c-4.374-2.875-10.367-0.611-11.52,4.769c-0.187,0.919-0.187,2.02,0,2.94 c0.101,0.47,0.24,0.95,0.431,1.4c0.189,0.449,0.42,0.89,0.689,1.29c0.271,0.409,0.59,0.8,0.93,1.14c1.4,1.4,3.33,2.2,5.31,2.2 c0.49,0,0.98-0.05,1.46-0.15c0.479-0.09,0.95-0.24,1.399-0.43c0.461-0.18,0.891-0.41,1.301-0.69c0.41-0.27,0.79-0.58,1.14-0.93 c0.35-0.34,0.66-0.73,0.93-1.14c0.558-0.826,0.918-1.738,1.12-2.691c0.184-1.006,0.19-1.903,0-2.94 C53.663,41.902,53.186,40.486,52.643,39.682z"></path><path d="M67.502,42.37c-0.1,0.49-0.15,0.98-0.15,1.471s0.051,0.979,0.15,1.47c0.1,0.47,0.24,0.95,0.43,1.4 c0.181,0.449,0.42,0.89,0.69,1.29c0.27,0.409,0.58,0.8,0.93,1.14c1.391,1.4,3.33,2.2,5.299,2.2c0.49,0,0.98-0.05,1.471-0.15 c0.479-0.09,0.949-0.24,1.399-0.43c0.45-0.18,0.891-0.41,1.3-0.69c0.41-0.27,0.79-0.58,1.141-0.93c0.34-0.34,0.66-0.73,0.93-1.14 c0.271-0.4,0.5-0.841,0.69-1.29c0.189-0.45,0.33-0.931,0.43-1.4c0.09-0.49,0.14-0.979,0.14-1.47 C82.35,35.052,69.422,33.311,67.502,42.37z"></path><path d="M110.226,40.972c-0.19-0.45-0.42-0.89-0.69-1.29c-0.28-0.41-0.59-0.8-0.94-1.14c-0.34-0.351-0.72-0.66-1.14-0.94 c-0.4-0.27-0.84-0.5-1.29-0.69c-4.634-1.85-9.379,1.07-10.219,5.459c-0.101,0.49-0.15,0.98-0.15,1.471s0.05,0.979,0.15,1.47 c0.09,0.47,0.24,0.95,0.43,1.4c0.18,0.449,0.41,0.89,0.68,1.29c0.28,0.409,0.591,0.8,0.94,1.14c0.34,0.35,0.729,0.66,1.14,0.93 c0.41,0.28,0.84,0.511,1.29,0.69c0.46,0.19,0.931,0.34,1.41,0.43c0.48,0.101,0.97,0.15,1.46,0.15s0.98-0.05,1.47-0.15 c0.481-0.09,0.95-0.24,1.4-0.43c0.45-0.18,0.89-0.41,1.29-0.69c0.42-0.27,0.8-0.58,1.14-0.93c0.351-0.34,0.66-0.73,0.94-1.14 c0.27-0.4,0.5-0.841,0.69-1.29c0.181-0.45,0.33-0.931,0.421-1.4c0.1-0.49,0.149-0.979,0.149-1.47s-0.05-0.98-0.149-1.471 C110.557,41.902,110.407,41.422,110.226,40.972z"></path><path d="M280.175,36.342H138.239c-4.143,0-7.499,3.357-7.499,7.499s3.357,7.499,7.499,7.499h141.936 c4.143,0,7.499-3.357,7.499-7.499S284.318,36.342,280.175,36.342z"></path><path d="M333.097,36.342h-19.52c-4.143,0-7.499,3.357-7.499,7.499s3.357,7.499,7.499,7.499h19.52c4.143,0,7.499-3.357,7.499-7.499 S337.239,36.342,333.097,36.342z"></path><path d="M497.147,233.252c-3.52-4.173-2.393-2.583-39.708-40.055c-29.436-30.657-53.759-27.245-78.096-27.249V147.05 c0-4.143-3.357-7.499-7.499-7.499s-7.499,3.357-7.499,7.499v18.898h-23.748v-38.385c0-10.751-8.747-19.498-19.498-19.498H57.527 c-10.751,0-19.498,8.747-19.498,19.498v73.487c0,10.751,8.747,19.498,19.498,19.498h178.971v143.755 c-0.1,0-217.621-0.012-203.723-0.078c-7.951-0.661-14.849-6.259-17.005-14.173c-1.298-4.768-0.445,10.239-0.686-262.418h349.259 v24.419c0,4.143,3.357,7.499,7.499,7.499s7.499-3.357,7.499-7.499c0-82.673,0.455-80.183-1.081-86.233 c-3.65-14.183-16.281-25.511-33.273-25.773C20.94,0.061,34.296-0.015,32.076,0.135C13.069,1.661,0.087,17.077,0.087,34.402v45.733 c0.418,277.901-1.046,265.559,1.212,273.858c4.038,14.82,17.544,25.31,33.142,25.31h202.057v44.577c0,4.143,3.357,7.499,7.499,7.499 c4.143,0,7.499-3.357,7.499-7.499c0-0.888-0.075-236.291,0.094-237.29c0.454-2.678,2.416-4.925,5.703-5.558 c0.101-0.012,0.534-0.066,0.434-0.054c0.957-0.09,137.328,0.003,137.429,0.001c10.027,0.364,17.097,3.834,21.03,10.326 c4.597,7.593,3.335,11.179,3.396,45.293c0,9.359,6.015,17.64,14.791,20.606c3.111,1.519,5.183,1.162,47.422,1.162 c14.368,1.077,14.974,10.772,15.157,14.037c0.09,2.237,0.034-14.225,0.048,217.791c0,3.732-3.036,6.767-6.768,6.767H258.265 c-3.732,0-6.768-3.036-6.768-6.767v-31.318c0-4.143-3.357-7.499-7.499-7.499c-4.143,0-7.499,3.357-7.499,7.499v31.318 c0,12.002,9.765,21.766,21.767,21.766h231.969c12.002,0,21.767-9.765,21.767-21.766V273.981 C512,259.562,507.221,245.248,497.147,233.252z M16.506,27.155c2.951-7.303,10.049-12.11,17.935-12.11 c332.278,0.039,311.744-0.18,314.596,0.434c6.942,1.486,12.525,6.678,14.507,13.457c1.403,4.752,0.532,4.666,0.799,43.7H15.085 C15.355,32.722,14.278,32.648,16.506,27.155z M325.597,165.948c-71.452,0.031-68.065-0.152-70.747,0.285 c-10.585,1.681-18.352,10.831-18.352,21.481v17.836H57.527c-2.439,0-4.5-2.061-4.5-4.5v-73.487c0-2.439,2.061-4.5,4.5-4.5h263.571 c2.44,0,4.5,2.061,4.5,4.5V165.948z M440.053,243.258c-0.148-0.05-0.3-0.095-0.454-0.136c-2.954-0.79-5.017-3.474-5.017-6.524 c-0.137-34.62,0.813-36.678-1.99-45.231c10.221,6.757,15.728,14.851,24.455,22.652c28.458,28.459,27.081,26.943,29.369,29.793 C479.914,242.794,449.147,243.768,440.053,243.258z"></path><path d="M314.983,330.718c7.945,0,11.228,3.873,11.847,11.278c0.161,3.755,3.632,4.67,7.404,4.67c5.738,0,7.404-2.087,7.404-7.29 c0-22.47-32.196-27.227-45.622-15.719c-2.393,2.051-4.292,4.726-5.695,8.03c-3.386,7.953-1.616,15.465-2.107,43.913 c0,12.04,4.803,21.312,16.061,24.661c12.621,3.756,29.615,0.379,35.369-11.79c1.847-3.906,3.309-12.597,0.171-15.15 c-2.354-1.91-7.81-1.904-10.708-0.455c-2.69,1.345-2.042,3.616-2.791,7.575c-0.949,5.003-4.489,8.259-11.106,8.259 c-8.439,0-12.19-4.727-12.19-13.101v-31.782C303.021,335.388,306.75,330.718,314.983,330.718z"></path><path d="M373.417,388.7c-7,0-10.561-2.89-16.004-7.405c-2.839-2.343-5.649-1.555-7.917,1.425 c-12.217,16.021,37.853,31.422,49.438,5.354c2.863-6.44,2.854-16.777-0.684-22.896c-9.775-16.895-33.832-14.827-33.832-26.599 c0-9.582,14.534-10.561,23.01-6.606c3.186,1.485,3.739,2.164,5.582,2.164c3.652,0,5.923-4.568,5.923-7.86 c0-8.976-21.171-10.41-31.497-7.916c-6.611,1.597-11.983,5.107-15.321,10.879c-3.414,5.897-3.395,16.019,0.228,21.758 c8.235,13.04,21.663,11.669,31.099,20.902c1.823,1.785,2.734,4.084,2.734,6.892C386.176,385.742,380.081,388.7,373.417,388.7z"></path><path d="M432.878,388.7c-12.964,0-16.073-12.038-21.871-7.974c-1.464,1.023-2.765,2.643-3.475,4.612 c-4.766,13.266,29.417,23.971,45.223,10.423c9.009-7.722,9.409-22.88,4.955-30.585c-7.839-13.549-22.296-13.694-31.099-20.847 c-3.839-3.121-3.708-9.175,0.627-12.189c3.818-2.651,12.503-3.505,19.649-0.17c3.186,1.485,3.739,2.164,5.582,2.164 c3.652,0,5.923-4.568,5.923-7.86c0-5.917-9.712-8.242-15.435-8.77c-18.047-1.67-33.888,4.655-33.888,22.441 c0,26.661,36.565,22.059,36.565,38.844C445.636,385.742,439.541,388.7,432.878,388.7z"></path><path d="M195.647,328.505h-74.849c-4.143,0-7.499,3.357-7.499,7.499s3.357,7.499,7.499,7.499h74.849 c11.34,0,20.565-9.226,20.565-20.566v-65.327c0-11.341-9.226-20.566-20.565-20.566H58.596c-11.341,0-20.566,9.226-20.566,20.566 v65.327c0,11.341,9.226,20.566,20.566,20.566h27.206c4.143,0,7.499-3.357,7.499-7.499s-3.357-7.499-7.499-7.499H58.596 c-3.07,0-5.567-2.498-5.567-5.567v-65.327c0-3.07,2.498-5.567,5.567-5.567h137.051c3.07,0,5.566,2.498,5.566,5.567v65.327 C201.214,326.007,198.716,328.505,195.647,328.505z"></path></svg>