<!-- icon666.com - MILLIONS vector ICONS FREE --><svg id="Icons" viewBox="0 0 60 60" xmlns="http://www.w3.org/2000/svg"><rect fill="#397382" height="36" rx="2" width="58" x="1" y="23"></rect><rect fill="#35585e" height="4" rx="1" width="6" x="5" y="27"></rect><rect fill="#35585e" height="4" rx="1" width="9" x="5" y="35"></rect><rect fill="#35585e" height="4" rx="1" width="4" x="15" y="27"></rect><rect fill="#35585e" height="4" rx="1" width="4" x="23" y="27"></rect><rect fill="#35585e" height="4" rx="1" width="4" x="31" y="27"></rect><rect fill="#35585e" height="4" rx="1" width="4" x="39" y="27"></rect><rect fill="#35585e" height="4" rx="1" width="4" x="18" y="35"></rect><rect fill="#35585e" height="4" rx="1" width="4" x="26" y="35"></rect><rect fill="#35585e" height="4" rx="1" width="4" x="34" y="35"></rect><rect fill="#35585e" height="4" rx="1" width="4" x="42" y="35"></rect><rect fill="#35585e" height="4" rx="1" width="5" x="5" y="43"></rect><rect fill="#35585e" height="4" rx="1" width="7" x="5" y="51"></rect><rect fill="#35585e" height="4" rx="1" width="5" x="42" y="51"></rect><rect fill="#35585e" height="4" rx="1" width="4" x="51" y="51"></rect><rect fill="#35585e" height="4" rx="1" width="22" x="16" y="51"></rect><rect fill="#35585e" height="4" rx="1" width="4" x="14" y="43"></rect><rect fill="#35585e" height="4" rx="1" width="4" x="22" y="43"></rect><rect fill="#35585e" height="4" rx="1" width="4" x="30" y="43"></rect><rect fill="#35585e" height="4" rx="1" width="4" x="38" y="43"></rect><path d="m54 36v10a1 1 0 0 1 -1 1h-6a1 1 0 0 1 -1-1v-2a1 1 0 0 1 1-1h2a1 1 0 0 0 1-1v-6a1 1 0 0 1 1-1h2a1 1 0 0 1 1 1z" fill="#35585e"></path><rect fill="#35585e" height="4" rx="1" width="8" x="47" y="27"></rect><rect fill="#fab344" height="18" rx="1" width="48" x="6" y="1"></rect><g fill="#373737"><path d="m57 22h-54a3 3 0 0 0 -3 3v32a3 3 0 0 0 3 3h54a3 3 0 0 0 3-3v-32a3 3 0 0 0 -3-3zm1 35a1 1 0 0 1 -1 1h-54a1 1 0 0 1 -1-1v-32a1 1 0 0 1 1-1h54a1 1 0 0 1 1 1z"></path><path d="m6 32h4a2 2 0 0 0 2-2v-2a2 2 0 0 0 -2-2h-4a2 2 0 0 0 -2 2v2a2 2 0 0 0 2 2zm0-4h4v2h-4z"></path><path d="m6 40h7a2 2 0 0 0 2-2v-2a2 2 0 0 0 -2-2h-7a2 2 0 0 0 -2 2v2a2 2 0 0 0 2 2zm0-4h7v2h-7z"></path><path d="m16 32h2a2 2 0 0 0 2-2v-2a2 2 0 0 0 -2-2h-2a2 2 0 0 0 -2 2v2a2 2 0 0 0 2 2zm0-4h2v2h-2z"></path><path d="m24 32h2a2 2 0 0 0 2-2v-2a2 2 0 0 0 -2-2h-2a2 2 0 0 0 -2 2v2a2 2 0 0 0 2 2zm0-4h2v2h-2z"></path><path d="m32 32h2a2 2 0 0 0 2-2v-2a2 2 0 0 0 -2-2h-2a2 2 0 0 0 -2 2v2a2 2 0 0 0 2 2zm0-4h2v2h-2z"></path><path d="m40 32h2a2 2 0 0 0 2-2v-2a2 2 0 0 0 -2-2h-2a2 2 0 0 0 -2 2v2a2 2 0 0 0 2 2zm0-4h2v2h-2z"></path><path d="m17 36v2a2 2 0 0 0 2 2h2a2 2 0 0 0 2-2v-2a2 2 0 0 0 -2-2h-2a2 2 0 0 0 -2 2zm4 2h-2v-2h2z"></path><path d="m25 36v2a2 2 0 0 0 2 2h2a2 2 0 0 0 2-2v-2a2 2 0 0 0 -2-2h-2a2 2 0 0 0 -2 2zm4 2h-2v-2h2z"></path><path d="m33 36v2a2 2 0 0 0 2 2h2a2 2 0 0 0 2-2v-2a2 2 0 0 0 -2-2h-2a2 2 0 0 0 -2 2zm4 2h-2v-2h2z"></path><path d="m45 34h-2a2 2 0 0 0 -2 2v2a2 2 0 0 0 2 2h2a2 2 0 0 0 2-2v-2a2 2 0 0 0 -2-2zm-2 4v-2h2v2z"></path><path d="m6 48h3a2 2 0 0 0 2-2v-2a2 2 0 0 0 -2-2h-3a2 2 0 0 0 -2 2v2a2 2 0 0 0 2 2zm0-4h3v2h-3z"></path><path d="m11 50h-5a2 2 0 0 0 -2 2v2a2 2 0 0 0 2 2h5a2 2 0 0 0 2-2v-2a2 2 0 0 0 -2-2zm-5 4v-2h5v2z"></path><path d="m46 50h-3a2 2 0 0 0 -2 2v2a2 2 0 0 0 2 2h3a2 2 0 0 0 2-2v-2a2 2 0 0 0 -2-2zm-3 4v-2h3v2z"></path><path d="m54 50h-2a2 2 0 0 0 -2 2v2a2 2 0 0 0 2 2h2a2 2 0 0 0 2-2v-2a2 2 0 0 0 -2-2zm-2 4v-2h2v2z"></path><path d="m37 50h-20a2 2 0 0 0 -2 2v2a2 2 0 0 0 2 2h20a2 2 0 0 0 2-2v-2a2 2 0 0 0 -2-2zm-20 4v-2h20v2z"></path><path d="m17 48a2 2 0 0 0 2-2v-2a2 2 0 0 0 -2-2h-2a2 2 0 0 0 -2 2v2a2 2 0 0 0 2 2zm-2-4h2v2h-2z"></path><path d="m23 42a2 2 0 0 0 -2 2v2a2 2 0 0 0 2 2h2a2 2 0 0 0 2-2v-2a2 2 0 0 0 -2-2zm0 4v-2h2v2z"></path><path d="m31 42a2 2 0 0 0 -2 2v2a2 2 0 0 0 2 2h2a2 2 0 0 0 2-2v-2a2 2 0 0 0 -2-2zm0 4v-2h2v2z"></path><path d="m43 46v-2a2 2 0 0 0 -2-2h-2a2 2 0 0 0 -2 2v2a2 2 0 0 0 2 2h2a2 2 0 0 0 2-2zm-4-2h2v2h-2z"></path><path d="m45 44v2a2 2 0 0 0 2 2h6a2 2 0 0 0 2-2v-10a2 2 0 0 0 -2-2h-2a2 2 0 0 0 -2 2v6h-2a2 2 0 0 0 -2 2zm6-2v-6h2v10h-6v-2h2a2 2 0 0 0 2-2z"></path><path d="m54 26h-6a2 2 0 0 0 -2 2v2a2 2 0 0 0 2 2h6a2 2 0 0 0 2-2v-2a2 2 0 0 0 -2-2zm-6 4v-2h6v2z"></path><path d="m6 7a1 1 0 0 0 -1 1v10a2 2 0 0 0 2 2h46a2 2 0 0 0 2-2v-16a2 2 0 0 0 -2-2h-46a2 2 0 0 0 -2 2v2a1 1 0 0 0 2 0v-2h46v16h-46v-10a1 1 0 0 0 -1-1z"></path><path d="m14.707 5.293a1 1 0 0 0 -1.414 0l-4 4a1 1 0 0 0 0 1.414l4 4a1 1 0 0 0 1.414-1.414l-3.293-3.293 3.293-3.293a1 1 0 0 0 0-1.414z"></path><path d="m45.293 14.707a1 1 0 0 0 1.414 0l4-4a1 1 0 0 0 0-1.414l-4-4a1 1 0 0 0 -1.414 1.414l3.293 3.293-3.293 3.293a1 1 0 0 0 0 1.414z"></path><path d="m18 6a1 1 0 0 0 -1 1v6a1 1 0 0 0 2 0v-2h2v2a1 1 0 0 0 2 0v-6a1 1 0 0 0 -2 0v2h-2v-2a1 1 0 0 0 -1-1z"></path><path d="m27 14a1 1 0 0 0 1-1v-5a1 1 0 0 0 0-2h-2a1 1 0 0 0 0 2v5a1 1 0 0 0 1 1z"></path><path d="m36 14a1 1 0 0 0 1-1v-6a1 1 0 0 0 -1.832-.555l-1.168 1.755-1.168-1.755a1 1 0 0 0 -1.832.555v6a1 1 0 0 0 2 0v-2.7l.168.252a1.039 1.039 0 0 0 1.664 0l.168-.252v2.7a1 1 0 0 0 1 1z"></path><path d="m40 6a1 1 0 0 0 -1 1v6a1 1 0 0 0 1 1h2a1 1 0 0 0 0-2h-1v-5a1 1 0 0 0 -1-1z"></path></g></svg>